<?xml version="1.0" encoding="utf-8"?>
<!-- Generator: Adobe Illustrator 17.0.0, SVG Export Plug-In . SVG Version: 6.00 Build 0)  -->
<!DOCTYPE svg PUBLIC "-//W3C//DTD SVG 1.1//EN" "http://www.w3.org/Graphics/SVG/1.1/DTD/svg11.dtd">
<svg version="1.1" id="Yabumi" xmlns="http://www.w3.org/2000/svg" xmlns:xlink="http://www.w3.org/1999/xlink" x="0px" y="0px"
	 width="160px" height="50px" viewBox="0 0 160 50" enable-background="new 0 0 160 50" xml:space="preserve">
<g>
	<g>
		<path d="M32.725,12.734l0.537-4.031l-3.571,1.884l-4.793-1.062L37.058,3.29l-1.554,13.58L32.725,12.734z"/>
	</g>
	<g>
		<path d="M14.985,46.182V32.452L4.76,13.827h4.753l4.56,8.929c1.248,2.448,2.209,4.416,3.217,6.672h0.096
			c0.912-2.111,2.017-4.224,3.265-6.672l4.656-8.929h4.752L19.209,32.405v13.777H14.985z"/>
		<path d="M46.472,46.182l-0.336-2.929h-0.144c-1.296,1.824-3.793,3.457-7.104,3.457c-4.705,0-7.105-3.313-7.105-6.673
			c0-5.616,4.993-8.688,13.97-8.641v-0.48c0-1.92-0.528-5.376-5.28-5.376c-2.16,0-4.417,0.672-6.049,1.728l-0.96-2.784
			c1.92-1.248,4.704-2.063,7.633-2.063c7.104,0,8.833,4.848,8.833,9.505v8.688c0,2.016,0.096,3.984,0.384,5.568H46.472z
			 M45.848,34.325c-4.608-0.096-9.841,0.721-9.841,5.232c0,2.736,1.824,4.033,3.984,4.033c3.024,0,4.944-1.921,5.616-3.889
			c0.145-0.432,0.24-0.912,0.24-1.344V34.325z"/>
		<path d="M56.551,46.182c0.096-1.584,0.191-3.937,0.191-6.001V12.099h4.177v14.594h0.096c1.488-2.593,4.177-4.272,7.921-4.272
			c5.761,0,9.841,4.8,9.793,11.856c0,8.305-5.232,12.434-10.417,12.434c-3.36,0-6.049-1.296-7.776-4.368h-0.145l-0.191,3.84H56.551z
			 M60.919,36.869c0,0.527,0.096,1.056,0.192,1.536c0.815,2.928,3.264,4.944,6.336,4.944c4.417,0,7.057-3.601,7.057-8.929
			c0-4.656-2.4-8.641-6.912-8.641c-2.881,0-5.568,1.968-6.433,5.184c-0.097,0.48-0.24,1.057-0.24,1.729V36.869z"/>
		<path d="M103.497,39.845c0,2.4,0.048,4.513,0.191,6.337h-3.744l-0.24-3.792h-0.096c-1.104,1.872-3.553,4.32-7.681,4.32
			c-3.648,0-8.017-2.017-8.017-10.177V22.948h4.225v12.865c0,4.417,1.344,7.393,5.185,7.393c2.832,0,4.8-1.968,5.568-3.84
			c0.239-0.624,0.384-1.393,0.384-2.16V22.948h4.225V39.845z"/>
		<path d="M110.501,29.237c0-2.4-0.048-4.368-0.191-6.289h3.696l0.191,3.745h0.145c1.295-2.209,3.456-4.272,7.296-4.272
			c3.168,0,5.568,1.92,6.576,4.656h0.096c0.721-1.296,1.633-2.305,2.593-3.024c1.392-1.056,2.928-1.632,5.137-1.632
			c3.072,0,7.632,2.016,7.632,10.08v13.682h-4.128V33.029c0-4.464-1.632-7.152-5.04-7.152c-2.4,0-4.272,1.776-4.993,3.84
			c-0.191,0.576-0.336,1.345-0.336,2.112v14.354h-4.128V32.261c0-3.696-1.633-6.385-4.849-6.385c-2.641,0-4.561,2.112-5.232,4.225
			c-0.24,0.624-0.336,1.344-0.336,2.063v14.018h-4.128V29.237z"/>
		<path d="M155.238,16.419c0.048,1.44-1.009,2.593-2.688,2.593c-1.488,0-2.544-1.152-2.544-2.593c0-1.488,1.104-2.64,2.64-2.64
			C154.229,13.78,155.238,14.931,155.238,16.419z M150.533,46.182V22.948h4.225v23.234H150.533z"/>
	</g>
</g>
</svg>
