<?xml version="1.0" encoding="utf-8"?>
<!DOCTYPE svg PUBLIC "-//W3C//DTD SVG 1.1//EN" "http://www.w3.org/Graphics/SVG/1.1/DTD/svg11.dtd">
<svg version="1.1" id="Layer" xmlns="http://www.w3.org/2000/svg" xmlns:xlink="http://www.w3.org/1999/xlink" x="0px" y="0px"
	 viewBox="0 0 210 297" enable-background="new 0 0 210 297" xml:space="preserve">
<polygon fill="#FFFFFF" points="0,0 0,297 210,297 210,60.3 164.5,39.3 149.6,0 "/>
<polygon fill="#F2F2F2" points="150,0 210,60 150,60 "/>
<g>
	<path fill="#ED575D" d="M208.8,61h-6.7c1.9,1,4.3,3,6.7,5.4l0.2,0.9V61H208.8z"/>
	<path fill="#ED575D" d="M184.5,93c0,0,5.7-22,13.9-32h-13.7c-17.1,77-67.8,132.1-125.3,138.2c-12.5,1.3-32.4,1.6-58.4-10v16v3.5
		v7.3C71.3,236.8,70.3,296,70.3,296h11.6c-3.5-45.5-26.5-67.9-47.9-79.3c5.7,0.1,12.1-0.2,19.2-1.4c48.5-7.9,79.6-40.2,79.6-40.2
		C99.4,243.5,112.6,296,112.6,296c20.7,0,44,0,64.7,0c-10.8-24-28.9-74.6-16.8-131c9.8-45.7,35.9-79.4,48-80.7c0.1,0,0.3,0,0.5-0.1
		v-9.8C204,76.7,194.3,80.8,184.5,93z"/>
</g>
<path opacity="0.5" fill="#F4E1E2" d="M209,218.8c-32.3-12-56.5-13.8-56.5-13.8c20.8-5.2,39.6-11.7,56.5-18.9V95.7
	c-24.3,30.3-56.7,61.2-98.7,83.8c-39.5,21.2-79.6,31-109.3,32.8v26.9c75.4-27.4,150.4-26.8,208,0.1V218.8z"/>
<g>
	<rect x="1" y="39.3" fill="#ED575D" width="104" height="42"/>
	<g>
		<path fill="#FFFFFF" d="M39.9,62.8h-5.3v10.1H30V47.8h9.7c4.9,0,8.5,2.2,8.5,7.5C48.2,60.8,45,62.8,39.9,62.8z M39.6,52.1h-5v6.4
			h5c2.3,0,4.1-0.5,4.1-3.2C43.7,52.6,41.8,52.1,39.6,52.1z"/>
		<path fill="#FFFFFF" d="M59.3,72.9h-7.1V47.8h7.1C69.1,47.8,71,51,71,60.3C71,69.6,69.1,72.9,59.3,72.9z M65.7,54
			c-0.8-1.4-2.4-1.8-5.4-1.8h-3.6v16.2h3.6c3,0,4.6-0.5,5.5-1.9c0.6-1.1,0.8-2.7,0.8-6.2C66.5,56.9,66.4,55.1,65.7,54z"/>
		<path fill="#FFFFFF" d="M92.1,52.2H79.9v5.6h10.8v4.2H79.9v10.8h-4.5V47.8h16.7V52.2z"/>
	</g>
</g>
<line fill="none" stroke="#FFFFFF" stroke-miterlimit="10" x1="149.6" y1="0" x2="210" y2="60.4"/>
</svg>
