<?xml version="1.0" encoding="utf-8"?>
<!DOCTYPE svg PUBLIC "-//W3C//DTD SVG 1.1//EN" "http://www.w3.org/Graphics/SVG/1.1/DTD/svg11.dtd">
<svg version="1.1" id="Layer" xmlns="http://www.w3.org/2000/svg" xmlns:xlink="http://www.w3.org/1999/xlink" x="0px" y="0px"
	 viewBox="0 0 210 297" enable-background="new 0 0 210 297" xml:space="preserve">
<polygon fill="#1C1735" points="0,0 0,297 210,297 210,60.3 164.5,39.3 149.6,0 "/>
<polygon fill="#37C5FA" points="150,0 210,60 150,60 "/>
<g>
	<rect x="1" y="39.3" fill="#37C5FA" width="104" height="42"/>
</g>
<line fill="none" stroke="#FFFFFF" stroke-miterlimit="10" x1="149.6" y1="0" x2="210" y2="60.4"/>
<g>
	<path fill="#1C1735" d="M39.8,62.8h-5.3v10.1h-4.5V47.8h9.7c4.9,0,8.5,2.2,8.5,7.5C48.1,60.8,44.9,62.8,39.8,62.8z M39.5,52.1h-5
		v6.4h5c2.3,0,4.1-0.5,4.1-3.2C43.6,52.6,41.7,52.1,39.5,52.1z"/>
	<path fill="#1C1735" d="M61,73.3c-5.3,0-8.8-2.4-10.1-7.4l4.3-0.8c0.8,2.8,3,3.9,5.8,3.9c2.1,0,4.8-1.1,4.8-3.6
		c0-5.2-14-1.8-14-10.8c0-4.8,4.3-7.1,8.5-7.1c4.5,0,7.3,1.7,9.3,5.6l-3.9,1.8c-1.2-2.2-2.7-3.2-5.3-3.2c-1.6,0-4,0.7-4,2.8
		c0,4.4,14,1.5,14,10.8C70.3,70.4,65.7,73.3,61,73.3z"/>
	<path fill="#1C1735" d="M81.3,72.9h-7.1V47.8h7.1C91.1,47.8,93,51,93,60.3C93,69.6,91.1,72.9,81.3,72.9z M87.7,54
		c-0.8-1.4-2.4-1.8-5.4-1.8h-3.6v16.2h3.6c3,0,4.6-0.5,5.5-1.9c0.6-1.1,0.8-2.7,0.8-6.2C88.5,56.9,88.4,55.1,87.7,54z"/>
</g>
<g>
	<path fill="#37C5FA" d="M76.3,210.9h-26V256H34.9V148.5h40.8c20.9,0,36,8.8,36,31.1C111.7,202.6,97.9,210.9,76.3,210.9z
		 M75.2,163.1H50.3v33.3h24.9c11.5,0,21.1-2.8,21.1-16.8C96.3,166.1,86.6,163.1,75.2,163.1z"/>
	<path fill="#37C5FA" d="M146.2,257.5c-14.9,0-27.3-5.2-30.8-20l12.8-3.4c2.5,7.4,8.9,10.3,17.7,10.3c5.9,0,14.8-2.2,14.8-9.9
		c0-16.3-43.9-7.2-43.9-33.7c0-14.8,12.8-21.4,26.6-21.4c13.2,0,21.1,3.5,27.9,14.3l-11.2,6.2c-3.5-5.4-9.1-7.5-15.4-7.5
		c-4.9,0-13.2,1.2-13.2,8.5c0,14.2,43.7,5.2,43.7,33.1C175.1,249.5,160.3,257.5,146.2,257.5z"/>
</g>
</svg>
