<?xml version="1.0" encoding="utf-8"?>
<!-- Generator: Adobe Illustrator 17.1.0, SVG Export Plug-In . SVG Version: 6.00 Build 0)  -->
<!DOCTYPE svg PUBLIC "-//W3C//DTD SVG 1.1//EN" "http://www.w3.org/Graphics/SVG/1.1/DTD/svg11.dtd">
<svg version="1.1" id="layer" xmlns="http://www.w3.org/2000/svg" xmlns:xlink="http://www.w3.org/1999/xlink" x="0px" y="0px"
	 viewBox="0 0 256 256" enable-background="new 0 0 256 256" xml:space="preserve">
<g>
	<polygon fill="#B1523D" points="77.378,159.504 101.117,104.139 129.633,144.867 	"/>
	<path fill="#EC6D51" d="M133.642,193.643L8.908,106.277l29.576-42.238c0.634-0.905,1.881-1.125,2.785-0.491l126.232,88.389
		L133.642,193.643z"/>
	<path fill="#E6E6E6" d="M245.453,107.738l-122.055,85.464c-0.376,0.263-0.878,0.255-1.245-0.021l-44.775-33.677l138.741-97.147
		l29.826,42.596C246.578,105.857,246.358,107.105,245.453,107.738z"/>
	<polygon fill="#B1523D" points="101.758,105.902 81.14,156.87 112.34,135.023 	"/>
	<polygon fill="#CCCCCC" points="131.437,187.573 112.34,135.023 109.159,137.251 	"/>
	<path fill="#F2F2F2" d="M133.642,193.643l-32.525-89.504l53.257-7.929c0.47-0.07,0.925,0.201,1.087,0.648l21.968,60.452
		c0.146,0.401,0.021,0.85-0.31,1.119L133.642,193.643z"/>
	<polygon fill="#B1523D" points="133.642,193.643 128.206,189.835 131.437,187.573 	"/>
	<polygon fill="#CCCCCC" points="159.277,102.158 176.867,155.763 157.771,103.212 	"/>
</g>
</svg>
